<?xml version="1.0" encoding="UTF-8" standalone="no"?>
<svg
   id="Layer_2"
   width="1445.3101"
   height="1285"
   viewBox="0 0 1445.31 1285"
   version="1.1"
   sodipodi:docname="Part_service_consulting.svg"
   inkscape:export-filename="Part_service_consulting.png"
   inkscape:export-xdpi="96"
   inkscape:export-ydpi="96"
   xmlns:inkscape="http://www.inkscape.org/namespaces/inkscape"
   xmlns:sodipodi="http://sodipodi.sourceforge.net/DTD/sodipodi-0.dtd"
   xmlns="http://www.w3.org/2000/svg"
   xmlns:svg="http://www.w3.org/2000/svg">
  <sodipodi:namedview
     id="namedview4432"
     pagecolor="#ffffff"
     bordercolor="#000000"
     borderopacity="0.25"
     inkscape:showpageshadow="2"
     inkscape:pageopacity="0.0"
     inkscape:pagecheckerboard="0"
     inkscape:deskcolor="#d1d1d1"
     showgrid="false" />
  <defs
     id="defs4328">
    <style
       id="style4326">.cls-1{fill:#fff;}.cls-2{fill:#a68053;}.cls-3{fill:#25418e;}.cls-4{fill:#1e2a50;}</style>
  </defs>
  <polygon
     class="cls-4"
     points="940.17,0 1445.31,940.69 1011.29,940.69 506.15,0 "
     id="polygon4330"
     style="fill:#003569;fill-opacity:1" />
  <polygon
     class="cls-3"
     points="505.89,0 0.75,940.69 434.77,940.69 939.91,0 "
     id="polygon4332"
     style="fill:#000033;fill-opacity:1" />
  <path
     class="cls-2"
     d="m 201.89,1285 h 1058.23 c 61.43,-114.81 122.85,-229.62 184.28,-344.43 H 0 c 67.3,114.81 134.59,229.62 201.89,344.43 z"
     id="path4334"
     style="fill:#ed1c24;fill-opacity:1" />
  <g
     id="g4366"
     style="display:none">
    <path
       class="cls-1"
       d="m 308.04,1120.02 c 0,-20.74 13.35,-32.9 29.24,-32.9 7.99,0 14.37,3.83 18.45,8.08 l -6.55,7.99 c -3.23,-3.06 -6.89,-5.27 -11.65,-5.27 -9.52,0 -16.66,8.16 -16.66,21.68 0,13.52 6.46,21.93 16.41,21.93 5.44,0 9.61,-2.55 13.01,-6.21 l 6.63,7.82 c -5.19,6.04 -11.9,9.27 -20.06,9.27 -15.9,0 -28.82,-11.39 -28.82,-32.39 z"
       id="path4336" />
    <path
       class="cls-1"
       d="m 380.8,1088.22 h 14.79 l 20.23,62.99 h -13.18 l -4.42,-16.15 h -20.4 l -4.42,16.15 h -12.75 z m -0.25,37.06 h 14.96 l -1.87,-6.89 c -1.96,-6.55 -3.66,-13.77 -5.44,-20.57 h -0.42 c -1.62,6.88 -3.49,14.03 -5.36,20.57 z"
       id="path4338" />
    <path
       class="cls-1"
       d="m 424.92,1088.22 h 20.66 c 13.94,0 24.65,4.93 24.65,19.81 0,14.88 -10.8,20.83 -24.31,20.83 h -8.42 v 22.36 h -12.58 v -62.99 z m 20.15,30.69 c 8.67,0 12.84,-3.66 12.84,-10.88 0,-7.22 -4.59,-9.78 -13.26,-9.78 h -7.14 v 20.66 h 7.57 z"
       id="path4340" />
    <path
       class="cls-1"
       d="m 490.62,1088.22 h 14.79 l 20.23,62.99 h -13.18 l -4.42,-16.15 h -20.4 l -4.42,16.15 h -12.75 z m -0.25,37.06 h 14.96 l -1.87,-6.89 c -1.96,-6.55 -3.66,-13.77 -5.44,-20.57 h -0.42 c -1.62,6.88 -3.49,14.03 -5.36,20.57 z"
       id="path4342" />
    <path
       class="cls-1"
       d="m 530.57,1120.02 c 0,-20.74 13.35,-32.9 29.24,-32.9 7.99,0 14.37,3.83 18.45,8.08 l -6.55,7.99 c -3.23,-3.06 -6.89,-5.27 -11.65,-5.27 -9.52,0 -16.66,8.16 -16.66,21.68 0,13.52 6.46,21.93 16.41,21.93 5.44,0 9.61,-2.55 13.01,-6.21 l 6.63,7.82 c -5.19,6.04 -11.9,9.27 -20.06,9.27 -15.9,0 -28.82,-11.39 -28.82,-32.39 z"
       id="path4344" />
    <path
       class="cls-1"
       d="m 591.26,1088.22 h 12.58 v 62.99 h -12.58 z"
       id="path4346" />
    <path
       class="cls-1"
       d="m 633.5,1098.77 h -17.68 v -10.54 h 48.11 v 10.54 h -17.85 v 52.45 H 633.5 Z"
       id="path4348" />
    <path
       class="cls-1"
       d="m 684.84,1128.18 -18.87,-39.95 h 13.35 l 6.29,15.39 c 1.79,4.67 3.49,9.1 5.44,13.94 h 0.34 c 1.96,-4.84 3.83,-9.27 5.61,-13.94 l 6.29,-15.39 h 13.09 l -18.96,39.95 v 23.04 h -12.58 z"
       id="path4350" />
    <path
       class="cls-1"
       d="m 746.3,1088.22 h 38.76 v 10.54 h -26.18 v 16.41 h 22.36 v 10.54 h -22.36 v 25.5 H 746.3 Z"
       id="path4352" />
    <path
       class="cls-1"
       d="m 793.56,1119.51 c 0,-20.49 11.48,-32.39 28.14,-32.39 16.66,0 28.14,11.99 28.14,32.39 0,20.4 -11.48,32.9 -28.14,32.9 -16.66,0 -28.14,-12.5 -28.14,-32.9 z m 43.44,0 c 0,-13.52 -5.95,-21.59 -15.3,-21.59 -9.35,0 -15.3,8.08 -15.3,21.59 0,13.51 5.95,22.02 15.3,22.02 9.35,0 15.3,-8.59 15.3,-22.02 z"
       id="path4354" />
    <path
       class="cls-1"
       d="m 863.85,1088.22 h 21.93 c 13.18,0 23.63,4.68 23.63,19.13 0,9.44 -4.76,15.3 -11.99,18.11 l 14.71,25.76 H 898.1 l -12.92,-23.8 h -8.76 v 23.8 h -12.58 v -62.99 z m 20.74,29.24 c 8.08,0 12.58,-3.4 12.58,-10.12 0,-6.72 -4.5,-9.1 -12.58,-9.1 h -8.16 v 19.21 h 8.16 z"
       id="path4356" />
    <path
       class="cls-1"
       d="m 944.51,1088.22 h 21.93 c 13.18,0 23.63,4.68 23.63,19.13 0,9.44 -4.76,15.3 -11.99,18.11 l 14.71,25.76 h -14.03 l -12.92,-23.8 h -8.76 v 23.8 H 944.5 v -62.99 z m 20.74,29.24 c 8.08,0 12.58,-3.4 12.58,-10.12 0,-6.72 -4.51,-9.1 -12.58,-9.1 h -8.16 v 19.21 h 8.16 z"
       id="path4358" />
    <path
       class="cls-1"
       d="m 1004.18,1088.22 h 12.58 v 62.99 h -12.58 z"
       id="path4360" />
    <path
       class="cls-1"
       d="m 1029.77,1143.22 7.23,-8.67 c 4.5,4.17 10.46,6.97 15.98,6.97 6.54,0 10.03,-2.81 10.03,-7.23 0,-4.68 -3.83,-6.12 -9.44,-8.5 l -8.42,-3.57 c -6.38,-2.63 -12.75,-7.74 -12.75,-16.92 0,-10.29 9.01,-18.19 21.76,-18.19 7.31,0 14.62,2.89 19.72,8.08 l -6.38,7.91 c -4,-3.31 -8.16,-5.18 -13.35,-5.18 -5.53,0 -9.01,2.46 -9.01,6.63 0,4.51 4.42,6.12 9.78,8.25 l 8.25,3.49 c 7.65,3.14 12.67,7.99 12.67,17.09 0,10.29 -8.58,19.04 -23.12,19.04 -8.42,0 -16.83,-3.32 -22.95,-9.18 z"
       id="path4362" />
    <path
       class="cls-1"
       d="m 1088.67,1088.22 h 12.58 v 27.37 h 0.25 l 20.83,-27.37 h 13.86 l -19.21,24.82 22.61,38.17 h -13.77 l -16.32,-28.31 -8.25,10.63 v 17.68 h -12.58 z"
       id="path4364" />
  </g>
  <g
     id="g4396"
     style="display:none">
    <path
       class="cls-1"
       d="m 901.07,202.23 7.14,12.95 -45.4,48.12 -6.36,-11.54 12.01,-11.67 -9.85,-17.87 -16.28,3.92 -6.16,-11.17 64.89,-12.76 z m -32.58,17.67 7.22,13.1 5.13,-4.96 c 4.79,-4.87 10.3,-9.85 15.39,-14.69 l -0.21,-0.37 c -6.81,1.91 -13.97,3.72 -20.6,5.24 l -6.93,1.69 z"
       id="path4368" />
    <path
       class="cls-1"
       d="m 916,251.17 -8.53,-15.49 9.23,-5.09 23.22,42.14 -9.23,5.09 -8.62,-15.63 -45.94,25.32 -6.07,-11.02 45.93,-25.32 z"
       id="path4370" />
    <path
       class="cls-1"
       d="m 942.46,299.18 -8.54,-15.49 9.23,-5.09 23.22,42.14 -9.23,5.09 -8.62,-15.63 -45.93,25.32 -6.07,-11.02 45.93,-25.32 z"
       id="path4372" />
    <path
       class="cls-1"
       d="m 972.13,331.16 6.07,11.02 -55.17,30.41 -6.07,-11.02 55.17,-30.4 z"
       id="path4374" />
    <path
       class="cls-1"
       d="m 983.29,373.25 -8.53,-15.49 9.23,-5.09 23.22,42.14 -9.23,5.09 -8.62,-15.63 -45.93,25.32 -6.07,-11.02 z"
       id="path4376" />
    <path
       class="cls-1"
       d="m 982.41,421.68 30.38,-16.74 6.07,11.02 -31.34,17.27 c -11.46,6.32 -13.12,12.47 -9.59,18.88 3.61,6.55 9.78,8.59 21.25,2.27 l 31.34,-17.27 5.83,10.57 -30.38,16.74 c -18.31,10.09 -30.14,6.42 -37.57,-7.05 -7.39,-13.4 -4.3,-25.59 14.02,-35.68 z"
       id="path4378" />
    <path
       class="cls-1"
       d="m 1044.46,462.4 8.33,15.11 c 9.27,16.83 6.23,32.09 -12.38,42.35 -18.54,10.22 -33.51,4.88 -42.46,-11.35 l -8.66,-15.71 55.17,-30.41 z m -38.35,39.96 c 5.66,10.27 14.7,13.64 28.1,6.25 13.48,-7.43 15.01,-16.62 9.35,-26.89 l -1.89,-3.42 -37.45,20.64 z"
       id="path4380" />
    <path
       class="cls-1"
       d="m 1074.57,517.04 18.63,33.8 -9.23,5.09 -12.56,-22.78 -12.73,7.02 10.67,19.36 -9.23,5.09 -10.67,-19.36 -14.74,8.12 13.01,23.6 -9.23,5.09 -19.08,-34.62 55.17,-30.41 z"
       id="path4382" />
    <path
       class="cls-1"
       d="m 1107.56,598.73 -8.54,-15.48 9.23,-5.09 23.22,42.14 -9.23,5.09 -8.62,-15.63 -45.93,25.32 -6.07,-11.02 45.94,-25.32 z"
       id="path4384" />
    <path
       class="cls-1"
       d="m 1107.04,640.75 c 17.94,-9.89 33.91,-5.58 41.95,9.01 8.04,14.59 3.08,30.43 -14.78,40.28 -17.87,9.85 -34.35,5.83 -42.39,-8.76 -8.04,-14.59 -2.64,-30.67 15.23,-40.52 z m 20.97,38.04 c 11.84,-6.53 16.04,-15.63 11.52,-23.82 -4.51,-8.19 -14.46,-9.5 -26.3,-2.98 -11.76,6.48 -16.41,15.84 -11.9,24.03 4.51,8.19 14.91,9.26 26.67,2.77 z"
       id="path4386" />
    <path
       class="cls-1"
       d="m 1178.5,705.6 10.59,19.21 c 6.36,11.54 7.31,22.95 -5.34,29.93 -8.26,4.55 -15.7,3.22 -21.64,-1.76 l -15.46,25.31 -6.77,-12.29 14.61,-22.8 -4.23,-7.67 -20.85,11.49 -6.07,-11.02 55.17,-30.4 z m -15.6,32.28 c 3.9,7.07 9.05,9.38 14.93,6.14 5.96,-3.28 5.79,-8.34 1.89,-15.41 l -3.94,-7.15 -16.82,9.27 z"
       id="path4388" />
    <path
       class="cls-1"
       d="m 1207.3,757.86 6.07,11.02 -55.17,30.4 -6.07,-11.02 55.17,-30.41 z"
       id="path4390" />
    <path
       class="cls-1"
       d="m 1171.48,806.81 11.08,2.14 c -1.47,5.96 -1.06,12.52 1.61,17.36 3.16,5.73 7.3,7.43 11.17,5.3 4.09,-2.26 3.51,-6.3 2.89,-12.37 l -0.94,-9.09 c -0.77,-6.86 0.62,-14.9 8.66,-19.33 9.01,-4.97 20.28,-0.89 26.44,10.28 3.53,6.4 4.53,14.2 2.45,21.17 l -10,-1.77 c 0.97,-5.1 0.6,-9.65 -1.9,-14.19 -2.67,-4.84 -6.51,-6.7 -10.16,-4.69 -3.95,2.17 -3.23,6.83 -2.5,12.54 l 0.93,8.9 c 0.94,8.22 -0.88,14.95 -8.85,19.34 -9.01,4.96 -20.82,1.67 -27.84,-11.06 -4.06,-7.37 -5.22,-16.34 -3.04,-24.53 z"
       id="path4392" />
    <path
       class="cls-1"
       d="m 1248.08,831.85 6.07,11.02 -23.97,13.21 0.12,0.22 34.03,5.03 6.69,12.13 -31.01,-4.84 -22.51,38.23 -6.65,-12.06 16.91,-27.96 -13.29,-2.09 -15.49,8.54 -6.07,-11.02 z"
       id="path4394" />
  </g>
  <g
     id="g4428"
     style="display:none">
    <path
       class="cls-1"
       d="m 258.92,890.43 c -18.31,-9.75 -22.76,-27.25 -15.29,-41.28 3.76,-7.05 10.13,-10.88 15.8,-12.48 l 3.97,9.53 c -4.22,1.41 -7.89,3.6 -10.13,7.8 -4.48,8.4 -0.63,18.54 11.3,24.9 12.08,6.44 22.39,4.61 27.07,-4.17 2.56,-4.8 2.26,-9.68 0.64,-14.4 l 10.02,-2.17 c 2.89,7.41 2.58,14.86 -1.25,22.06 -7.47,14.03 -23.6,20.08 -42.13,10.2 z"
       id="path4398" />
    <path
       class="cls-1"
       d="m 265.07,811.27 6.95,-13.05 65.11,11.76 -6.2,11.63 -16.33,-3.69 -9.59,18.01 12.18,11.5 -6,11.25 -46.12,-47.4 z m 32.59,17.65 7.04,-13.2 -6.96,-1.59 c -6.7,-1.35 -13.87,-3.25 -20.71,-4.87 l -0.2,0.38 c 5.32,4.66 10.74,9.67 15.64,14.4 l 5.2,4.89 z"
       id="path4400" />
    <path
       class="cls-1"
       d="m 285.81,772.33 9.71,-18.23 c 6.55,-12.3 15.94,-19.44 29.07,-12.44 12.68,6.75 13.3,19.32 6.95,31.25 l -3.96,7.43 19.73,10.51 -5.92,11.1 -55.59,-29.62 z m 36.56,-3.35 c 4.08,-7.65 2.81,-13.05 -3.57,-16.44 -6.45,-3.44 -10.79,-0.54 -14.86,7.11 l -3.36,6.3 18.23,9.71 z"
       id="path4402" />
    <path
       class="cls-1"
       d="m 316.71,714.34 6.95,-13.05 65.11,11.76 -6.19,11.63 -16.33,-3.69 -9.59,18.01 12.18,11.5 -6,11.25 -46.12,-47.4 z m 32.59,17.65 7.03,-13.2 -6.96,-1.59 c -6.7,-1.35 -13.87,-3.25 -20.71,-4.87 l -0.2,0.38 c 5.32,4.66 10.74,9.67 15.64,14.4 l 5.2,4.89 z"
       id="path4404" />
    <path
       class="cls-1"
       d="m 363.55,694.04 c -18.31,-9.75 -22.76,-27.25 -15.28,-41.28 3.76,-7.05 10.13,-10.88 15.8,-12.48 l 3.98,9.53 c -4.22,1.41 -7.89,3.6 -10.13,7.8 -4.48,8.4 -0.63,18.54 11.3,24.9 12.08,6.43 22.39,4.61 27.07,-4.17 2.56,-4.8 2.26,-9.68 0.64,-14.4 l 10.02,-2.17 c 2.89,7.41 2.58,14.86 -1.25,22.06 -7.47,14.03 -23.6,20.08 -42.13,10.21 z"
       id="path4406" />
    <path
       class="cls-1"
       d="m 364.03,625.52 5.92,-11.1 55.59,29.62 -5.92,11.1 z"
       id="path4408" />
    <path
       class="cls-1"
       d="m 393.19,593.2 -8.31,15.6 -9.3,-4.96 22.62,-42.46 9.3,4.96 -8.39,15.76 46.29,24.66 -5.92,11.1 z"
       id="path4410" />
    <path
       class="cls-1"
       d="m 443.29,561.71 -44.13,-2.13 6.28,-11.78 16.54,1.68 c 4.96,0.62 9.67,1.2 14.86,1.75 l 0.16,-0.3 c -3.36,-4 -6.38,-7.73 -9.66,-11.51 l -10.62,-12.79 6.16,-11.55 26.35,35.52 20.33,10.83 -5.92,11.1 -20.33,-10.83 z"
       id="path4412" />
    <path
       class="cls-1"
       d="m 436.92,488.69 18.23,-34.21 9.3,4.96 -12.31,23.11 14.48,7.71 10.51,-19.73 9.3,4.96 -10.51,19.73 22.51,11.99 -5.92,11.1 z"
       id="path4414" />
    <path
       class="cls-1"
       d="m 486.75,461.69 c -18.08,-9.63 -23.19,-25.36 -15.35,-40.06 7.83,-14.7 23.81,-19.2 41.81,-9.6 18,9.59 23.64,25.6 15.8,40.3 -7.84,14.7 -24.26,18.96 -42.26,9.37 z m 20.42,-38.34 c -11.93,-6.36 -21.85,-4.9 -26.25,3.35 -4.4,8.25 -0.07,17.3 11.86,23.66 11.85,6.31 22.23,5.1 26.63,-3.15 4.4,-8.25 -0.38,-17.54 -12.24,-23.86 z"
       id="path4416" />
    <path
       class="cls-1"
       d="m 492.2,384.94 10.31,-19.36 c 6.2,-11.63 15.24,-18.66 27.99,-11.86 8.33,4.44 11.26,11.4 10.34,19.09 l 29.65,-0.87 -6.59,12.38 -27.08,0.21 -4.12,7.73 21.01,11.19 -5.92,11.1 -55.59,-29.62 z m 35.56,-4.56 c 3.8,-7.13 2.92,-12.7 -3.01,-15.86 -6,-3.2 -10.15,-0.3 -13.94,6.83 l -3.84,7.2 16.96,9.03 3.84,-7.2 z"
       id="path4418" />
    <path
       class="cls-1"
       d="m 530.12,313.75 5.92,-11.1 46.29,24.66 12.03,-22.58 9.3,4.96 -17.95,33.69 -55.59,-29.62 z"
       id="path4420" />
    <path
       class="cls-1"
       d="m 578.63,289.23 c -18.08,-9.63 -23.19,-25.36 -15.35,-40.06 7.83,-14.71 23.81,-19.2 41.81,-9.61 18,9.59 23.64,25.6 15.8,40.3 -7.84,14.7 -24.26,18.96 -42.26,9.36 z m 20.42,-38.34 c -11.93,-6.36 -21.85,-4.9 -26.25,3.35 -4.4,8.25 -0.07,17.3 11.86,23.66 11.85,6.31 22.23,5.1 26.63,-3.15 4.4,-8.25 -0.38,-17.54 -12.24,-23.86 z"
       id="path4422" />
    <path
       class="cls-1"
       d="m 630.66,242.02 -4.25,-10.45 c 5.79,-2.02 11.07,-5.95 13.67,-10.83 3.08,-5.78 2.24,-10.17 -1.66,-12.25 -4.13,-2.2 -7.2,0.5 -11.94,4.33 l -7.11,5.75 c -5.32,4.39 -12.82,7.62 -20.92,3.3 -9.08,-4.84 -11.82,-16.51 -5.82,-27.76 3.44,-6.45 9.42,-11.55 16.4,-13.61 l 3.98,9.34 c -4.8,1.97 -8.41,4.77 -10.85,9.34 -2.6,4.88 -2.06,9.11 1.61,11.07 3.98,2.12 7.48,-1.02 11.87,-4.75 l 6.95,-5.64 c 6.37,-5.27 13.01,-7.42 21.04,-3.15 9.08,4.84 12.77,16.53 5.93,29.36 -3.96,7.43 -10.84,13.3 -18.89,15.94 z"
       id="path4424" />
    <path
       class="cls-1"
       d="m 655.64,195.13 -4.25,-10.45 c 5.79,-2.02 11.07,-5.95 13.67,-10.83 3.08,-5.78 2.24,-10.17 -1.66,-12.25 -4.13,-2.2 -7.2,0.5 -11.94,4.33 l -7.11,5.75 c -5.32,4.39 -12.82,7.62 -20.92,3.3 -9.08,-4.84 -11.82,-16.51 -5.82,-27.76 3.44,-6.45 9.42,-11.54 16.4,-13.61 l 3.98,9.34 c -4.8,1.97 -8.41,4.77 -10.85,9.34 -2.6,4.88 -2.06,9.11 1.61,11.07 3.98,2.12 7.48,-1.02 11.87,-4.75 l 6.95,-5.64 c 6.37,-5.27 13.01,-7.42 21.04,-3.15 9.08,4.84 12.77,16.53 5.93,29.36 -3.96,7.43 -10.84,13.3 -18.89,15.94 z"
       id="path4426" />
  </g>
  <text
     xml:space="preserve"
     style="font-style:normal;font-variant:normal;font-weight:bold;font-stretch:normal;font-size:96px;font-family:sans-serif;-inkscape-font-specification:'sans-serif Bold';text-align:center;letter-spacing:10px;text-anchor:middle;fill:#ffffff;fill-opacity:1;stroke:none;stroke-width:1.09606"
     x="715.42407"
     y="1156.0394"
     id="text5336"><tspan
       sodipodi:role="line"
       id="tspan5334"
       x="720.42407"
       y="1156.0394">SERVICE</tspan></text>
  <text
     xml:space="preserve"
     style="font-style:normal;font-variant:normal;font-weight:bold;font-stretch:normal;font-size:96px;font-family:sans-serif;-inkscape-font-specification:'sans-serif Bold';text-align:center;letter-spacing:10px;text-anchor:middle;fill:#ffffff;fill-opacity:1;stroke:none;stroke-width:1.09606"
     x="960.94501"
     y="-598.82031"
     id="text5336-1"
     transform="rotate(61.156275)"><tspan
       sodipodi:role="line"
       id="tspan5334-4"
       x="965.94501"
       y="-598.82031">PART</tspan></text>
  <text
     xml:space="preserve"
     style="font-style:normal;font-variant:normal;font-weight:bold;font-stretch:normal;font-size:96px;font-family:sans-serif;-inkscape-font-specification:'sans-serif Bold';text-align:center;letter-spacing:0px;text-anchor:middle;fill:#ffffff;fill-opacity:1;stroke:none;stroke-width:1.09606"
     x="-233.77039"
     y="659.77631"
     id="text5336-2"
     transform="rotate(-61.973691)"><tspan
       sodipodi:role="line"
       id="tspan5334-7"
       x="-233.77039"
       y="659.77631">CONSULTING</tspan></text>
</svg>
