<?xml version="1.0" encoding="UTF-8" standalone="no"?>
<svg
   width="300"
   zoomAndPan="magnify"
   viewBox="0 0 224.87999 225"
   height="300"
   preserveAspectRatio="xMidYMid meet"
   version="1.0"
   id="svg5279"
   sodipodi:docname="why_work_with_us_2.svg"
   inkscape:version="1.2.2 (732a01da63, 2022-12-09)"
   xmlns:inkscape="http://www.inkscape.org/namespaces/inkscape"
   xmlns:sodipodi="http://sodipodi.sourceforge.net/DTD/sodipodi-0.dtd"
   xmlns="http://www.w3.org/2000/svg"
   xmlns:svg="http://www.w3.org/2000/svg">
  <sodipodi:namedview
     id="namedview5281"
     pagecolor="#ffffff"
     bordercolor="#000000"
     borderopacity="0.25"
     inkscape:showpageshadow="2"
     inkscape:pageopacity="0.0"
     inkscape:pagecheckerboard="0"
     inkscape:deskcolor="#d1d1d1"
     showgrid="false"
     inkscape:zoom="2.79"
     inkscape:cx="130.82437"
     inkscape:cy="150.17921"
     inkscape:window-width="1920"
     inkscape:window-height="1017"
     inkscape:window-x="-8"
     inkscape:window-y="-8"
     inkscape:window-maximized="1"
     inkscape:current-layer="svg5279" />
  <defs
     id="defs5267">
    <clipPath
       id="654e9d3ee0">
      <path
         d="M 1 17 L 100 17 L 100 207.933594 L 1 207.933594 Z M 1 17 "
         clip-rule="nonzero"
         id="path5261" />
    </clipPath>
    <clipPath
       id="8ae4e04fdb">
      <path
         d="M 125 17 L 224 17 L 224 207.933594 L 125 207.933594 Z M 125 17 "
         clip-rule="nonzero"
         id="path5264" />
    </clipPath>
  </defs>
  <path
     fill="#c3e3ff"
     d="M 96.832031 158.636719 C 98.472656 159.128906 99.9375 160.507812 100.519531 162.089844 C 101.097656 163.671875 100.78125 165.039062 99.964844 165.890625 L 96.875 169.125 C 96.0625 169.988281 94.6875 170.359375 93.058594 169.871094 C 91.421875 169.359375 89.953125 167.984375 89.375 166.414062 C 89.140625 165.789062 89.113281 165.226562 89.125 164.683594 L 95.082031 158.488281 C 95.671875 158.304688 96.304688 158.589844 96.832031 158.636719 Z M 88.375 145.386719 C 90.34375 145.792969 92.015625 147.566406 92.683594 149.4375 C 93.347656 151.320312 92.972656 153.046875 91.902344 154.164062 L 86.035156 160.304688 C 84.960938 161.421875 83.238281 161.902344 81.289062 161.324219 C 79.347656 160.753906 77.648438 159.160156 76.96875 157.273438 C 76.300781 155.398438 76.707031 153.640625 77.78125 152.527344 L 83.613281 146.417969 C 85.117188 144.832031 86.585938 145.023438 88.375 145.386719 Z M 75.875 134.113281 C 78.226562 134.546875 79.925781 136.152344 80.589844 138.042969 C 81.257812 139.929688 80.878906 141.660156 79.804688 142.777344 L 73.941406 148.917969 C 72.871094 150.035156 71.128906 150.511719 69.195312 149.945312 C 67.253906 149.367188 65.566406 147.742188 64.902344 145.871094 C 64.21875 143.984375 64.597656 142.257812 65.667969 141.136719 L 71.519531 135.015625 C 72.316406 134.152344 73.511719 133.671875 75.875 134.113281 Z M 64.191406 122.574219 C 66.210938 123.082031 67.851562 124.75 68.519531 126.621094 C 69.183594 128.511719 68.792969 130.234375 67.71875 131.367188 L 61.867188 137.492188 C 60.796875 138.605469 59.054688 139.085938 57.125 138.519531 C 55.179688 137.941406 53.464844 136.34375 52.800781 134.457031 C 52.132812 132.582031 52.507812 130.847656 53.585938 129.710938 L 59.808594 123.226562 C 61.40625 122.167969 62.625 122.183594 64.191406 122.574219 Z M 143.632812 82.777344 L 170.539062 117.636719 C 166.085938 122.671875 160.917969 125.375 155.8125 127.476562 L 130.3125 107.597656 C 126.6875 104.78125 121.648438 99.789062 114.695312 100.675781 L 104.539062 101.996094 C 99.183594 102.691406 95.566406 102.007812 93.378906 100.34375 C 91.1875 98.671875 90.492188 96.421875 91.695312 95.378906 C 92.902344 94.332031 95.367188 94.882812 98.226562 93.867188 L 116.441406 87.378906 C 119.867188 86.148438 125.296875 85.902344 130.722656 85.496094 C 135.246094 85.144531 139.84375 84.726562 143.632812 82.777344 Z M 106.484375 79.195312 C 110.648438 78.976562 113.941406 80.167969 117.136719 81.703125 C 116.289062 81.910156 115.453125 82.140625 114.652344 82.429688 L 97.152344 88.699219 C 94.480469 89.089844 92.507812 89.246094 90.707031 89.789062 C 88.832031 90.351562 86.988281 91.878906 86.207031 93.863281 C 84.714844 97.640625 86.628906 101.820312 90.167969 104.535156 C 93.726562 107.246094 99.179688 108.625 105.726562 107.117188 L 115.347656 105.898438 C 119.328125 105.390625 123.011719 108.59375 126.914062 111.648438 L 155.082031 133.589844 C 156.316406 134.550781 156.953125 136.214844 156.5625 138.175781 C 156.183594 140.140625 154.734375 141.949219 152.902344 142.804688 C 151.074219 143.648438 149.277344 143.429688 148.058594 142.472656 L 133.777344 131.371094 C 133.300781 130.980469 132.6875 130.773438 132.082031 130.789062 C 129.585938 130.847656 128.566406 134.011719 130.558594 135.519531 L 140.425781 143.214844 C 141.660156 144.171875 142.28125 145.828125 141.902344 147.785156 C 141.511719 149.746094 140.074219 151.589844 138.246094 152.429688 C 136.402344 153.273438 134.613281 153.054688 133.386719 152.09375 L 123.503906 144.402344 C 123.007812 144.011719 122.398438 143.808594 121.789062 143.824219 C 119.292969 143.890625 118.277344 147.058594 120.265625 148.550781 L 127.058594 153.847656 C 128.292969 154.808594 128.914062 156.449219 128.539062 158.40625 C 128.144531 160.367188 126.710938 162.207031 124.863281 163.058594 C 123.113281 163.875 121.382812 163.683594 120.160156 162.816406 L 113.210938 157.449219 C 112.714844 157.050781 112.121094 156.855469 111.5 156.867188 C 109.003906 156.925781 107.988281 160.105469 109.972656 161.597656 L 116.058594 166.324219 C 116.144531 166.835938 116.171875 167.402344 116.042969 168.039062 C 115.710938 169.683594 114.460938 171.277344 112.925781 172.003906 C 111.382812 172.730469 109.972656 172.554688 109.035156 171.816406 L 104.65625 168.40625 C 106.207031 166.070312 106.425781 163.050781 105.449219 160.277344 C 104.175781 156.589844 101.09375 154.253906 97.992188 153.5 C 98.425781 151.609375 98.324219 149.597656 97.644531 147.683594 C 96.382812 144.140625 93.476562 141.394531 89.863281 140.332031 C 88.632812 139.972656 87.378906 139.839844 86.148438 139.929688 C 86.148438 138.710938 85.972656 137.464844 85.539062 136.273438 C 84.277344 132.730469 81.371094 130.003906 77.773438 128.929688 C 76.554688 128.582031 75.289062 128.449219 74.074219 128.523438 C 74.089844 127.300781 73.898438 126.054688 73.480469 124.863281 C 72.21875 121.320312 69.285156 118.578125 65.667969 117.519531 C 62.386719 116.546875 58.894531 117.1875 56.367188 119.304688 C 55.871094 118.625 55.324219 117.941406 54.636719 117.273438 L 81.804688 82.835938 C 85.191406 82.878906 88.789062 82.105469 91.679688 81.554688 C 96.734375 80.585938 102.523438 79.414062 106.484375 79.195312 Z M 74.351562 77.609375 L 77.367188 79.980469 L 50.59375 113.941406 L 47.53125 111.558594 C 43.757812 108.613281 42.855469 106.652344 42.988281 104.535156 C 43.117188 102.414062 44.757812 99.398438 47.878906 95.433594 L 58.621094 81.804688 C 61.753906 77.84375 64.324219 75.539062 66.960938 75.089844 C 69.605469 74.625 71.523438 75.40625 74.351562 77.609375 Z M 158.46875 75.058594 C 161.109375 75.539062 163.636719 77.890625 166.707031 81.894531 L 177.261719 95.652344 C 180.335938 99.660156 181.9375 102.703125 182.035156 104.824219 C 182.136719 106.945312 181.207031 108.886719 177.390625 111.777344 L 174.417969 114.039062 L 148.003906 79.804688 L 151.035156 77.5 C 153.898438 75.316406 155.824219 74.566406 158.46875 75.058594 Z M 147.855469 73.285156 L 142.648438 77.265625 C 140.296875 79.046875 135.566406 79.847656 130.308594 80.253906 C 129.105469 80.34375 127.871094 80.441406 126.652344 80.515625 C 121.53125 78.25 115.460938 73.429688 106.1875 73.925781 C 101.5 74.175781 95.667969 75.421875 90.679688 76.375 C 88.023438 76.949219 85.332031 77.394531 82.839844 77.554688 C 81.082031 76.207031 79.324219 74.824219 77.582031 73.460938 C 73.128906 69.980469 68.789062 68.628906 64.8125 69.863281 C 60.835938 71.097656 57.8125 74.316406 54.480469 78.535156 L 43.738281 92.152344 C 40.414062 96.375 37.976562 100.058594 37.714844 104.214844 C 37.46875 108.304688 39.777344 112.125 44.132812 115.558594 L 49.777344 119.960938 C 51.167969 121.09375 52.011719 122.09375 52.621094 123.121094 L 49.777344 126.097656 C 47.234375 128.753906 46.582031 132.6875 47.84375 136.230469 C 49.105469 139.769531 52.011719 142.511719 55.609375 143.585938 C 56.84375 143.933594 58.09375 144.066406 59.328125 143.996094 C 59.328125 145.214844 59.511719 146.433594 59.9375 147.636719 C 61.199219 151.160156 64.101562 153.90625 67.714844 154.980469 C 68.933594 155.339844 70.179688 155.460938 71.398438 155.386719 C 71.386719 156.605469 71.585938 157.851562 72.007812 159.042969 C 73.269531 162.585938 76.175781 165.328125 79.792969 166.386719 C 81.183594 166.804688 82.632812 166.925781 84.027344 166.765625 C 84.128906 167.257812 84.261719 167.734375 84.433594 168.230469 C 85.609375 171.417969 88.238281 173.902344 91.515625 174.90625 C 94.648438 175.863281 98.121094 175.285156 100.398438 173.019531 L 101.109375 172.324219 L 106.289062 176.296875 C 108.773438 178.203125 112.296875 178.1875 115.1875 176.765625 C 118.933594 174.90625 120.890625 171.613281 121.265625 168.726562 C 124.882812 169.203125 127.816406 167.867188 130.382812 165.519531 C 132.570312 163.503906 133.585938 160.890625 133.875 157.96875 C 137.839844 158.800781 141.355469 157.246094 144.152344 154.503906 C 146.144531 152.558594 146.871094 150.089844 147.171875 147.957031 C 149.679688 148.898438 152.554688 148.753906 155.113281 147.566406 C 158.523438 146 161.003906 142.863281 161.730469 139.179688 C 162.28125 136.378906 161.699219 133.515625 160.121094 131.3125 C 165.359375 128.933594 171.003906 125.609375 175.738281 119.660156 L 180.585938 116.003906 C 185.078125 112.578125 187.507812 108.726562 187.300781 104.574219 C 187.101562 100.425781 184.71875 96.710938 181.4375 92.445312 L 170.886719 78.6875 C 167.621094 74.417969 164.546875 70.398438 159.496094 69.496094 C 154.445312 68.597656 151.242188 70.734375 147.855469 73.285156 Z M 147.855469 73.285156 "
     fill-opacity="1"
     fill-rule="nonzero"
     id="path5269"
     style="fill:#ed1c24;fill-opacity:1" />
  <g
     clip-path="url(#654e9d3ee0)"
     id="g5273"
     style="fill:#003569;fill-opacity:1">
    <path
       fill="#c3e3ff"
       d="M 82.84375 193.699219 C 79.761719 198.632812 75.539062 201.902344 70.519531 202.480469 C 65.65625 203.042969 60.011719 200.796875 54.324219 196.351562 C 59.472656 193.960938 64.21875 191.449219 69.398438 190.867188 C 74.582031 190.277344 78.28125 191.335938 82.84375 193.699219 Z M 39.433594 168.664062 C 44.800781 169.203125 48.71875 171.652344 53.203125 176.839844 C 48.515625 180.292969 43.394531 181.761719 38.519531 180.4375 C 33.785156 179.160156 29.375 174.980469 25.746094 168.742188 C 29.996094 168.503906 34.0625 168.113281 39.433594 168.664062 Z M 9.726562 131.832031 C 15.082031 133.761719 20.203125 135.332031 23.511719 137.449219 C 27.078125 139.742188 29.722656 143.546875 31.8125 150.058594 C 26.15625 151.394531 20.851562 150.726562 16.894531 147.605469 C 13.050781 144.574219 10.625 139 9.726562 131.832031 Z M 8.117188 91.777344 C 12.363281 95.550781 16.542969 98.902344 18.828125 102.109375 C 21.292969 105.546875 22.335938 110.066406 21.859375 116.898438 C 16.101562 116.023438 11.441406 113.445312 8.914062 109.074219 C 6.476562 104.824219 6.289062 98.757812 8.117188 91.777344 Z M 22.933594 53.386719 C 25.15625 58.625 27.507812 63.445312 28.203125 67.320312 C 28.957031 71.484375 27.96875 76.015625 24.632812 81.980469 C 19.785156 78.742188 16.667969 74.417969 16.257812 69.382812 C 15.863281 64.507812 18.285156 58.933594 22.933594 53.386719 Z M 48.238281 24.292969 C 48.953125 29.921875 49.472656 35.195312 49.101562 39.109375 C 48.695312 43.335938 46.953125 47.425781 42.101562 52.257812 C 38.328125 47.835938 36.5 42.828125 37.476562 37.863281 C 38.417969 33.054688 42.265625 28.359375 48.238281 24.292969 Z M 48.9375 17.585938 C 39.679688 22.578125 34.105469 29.457031 32.652344 36.914062 C 31.335938 43.609375 33.425781 50.472656 38.34375 56.015625 C 36.285156 58.933594 34.410156 61.9375 32.726562 65.042969 C 31.449219 59.570312 28.792969 54.417969 26.050781 47.699219 C 25.339844 45.972656 23.117188 45.511719 21.785156 46.757812 C 14.105469 53.953125 10.742188 62.214844 11.351562 69.773438 C 11.972656 77.320312 16.664062 83.957031 24.152344 87.886719 C 23.335938 91.441406 22.761719 95.027344 22.378906 98.65625 C 18.851562 93.984375 14.0625 90.414062 8.503906 85.289062 C 7.054688 83.941406 4.90625 84.589844 4.257812 86.25 C 0.425781 96.039062 0.859375 104.953125 4.648438 111.527344 C 8.289062 117.859375 15.023438 121.757812 23.074219 122.351562 C 23.65625 125.898438 24.457031 129.40625 25.46875 132.886719 C 20.460938 129.902344 14.757812 128.242188 7.695312 125.664062 C 5.484375 124.863281 4.046875 126.300781 4.089844 128.144531 C 4.324219 138.652344 7.878906 146.769531 13.84375 151.464844 C 19.59375 156.011719 27.3125 157.128906 35.035156 154.660156 C 36.9375 157.78125 39.007812 160.765625 41.269531 163.632812 C 35.292969 162.65625 29.246094 163.789062 21.453125 163.875 C 19.40625 163.890625 18.371094 165.9375 19.097656 167.558594 C 23.421875 177.152344 29.90625 183.191406 37.222656 185.183594 C 44.273438 187.097656 51.796875 185.105469 57.902344 179.855469 C 60.808594 182.015625 63.824219 184.003906 66.960938 185.816406 C 61.011719 187.125 55.742188 190.332031 48.53125 193.421875 C 46.671875 194.222656 46.367188 196.339844 47.714844 197.722656 C 55.117188 205.191406 63.554688 208.242188 71.085938 207.371094 C 78.355469 206.53125 84.625 201.886719 88.355469 194.699219 C 90.96875 195.414062 93.605469 196.035156 96.296875 196.511719 C 99.824219 197.207031 100.765625 191.851562 97.191406 191.316406 C 68.214844 186.222656 43.960938 166.460938 33.105469 139.097656 C 22.394531 112.121094 26.285156 80.855469 43.273438 58.128906 C 47.585938 52.375 53.523438 48.292969 54.421875 39.585938 C 55.0625 33.488281 53.566406 27.496094 52.78125 19.644531 C 52.585938 17.644531 50.496094 16.746094 48.9375 17.585938 Z M 48.9375 17.585938 "
       fill-opacity="1"
       fill-rule="nonzero"
       id="path5271"
       style="fill:#003569;fill-opacity:1" />
  </g>
  <g
     clip-path="url(#8ae4e04fdb)"
     id="g5277"
     style="fill:#003569;fill-opacity:1">
    <path
       fill="#c3e3ff"
       d="M 142.183594 193.699219 C 145.261719 198.632812 149.484375 201.902344 154.492188 202.480469 C 159.367188 203.042969 164.996094 200.796875 170.6875 196.351562 C 165.53125 193.960938 160.804688 191.449219 155.625 190.867188 C 150.441406 190.277344 146.742188 191.335938 142.183594 193.699219 Z M 185.59375 168.664062 C 180.203125 169.203125 176.285156 171.652344 171.800781 176.839844 C 176.507812 180.292969 181.628906 181.761719 186.507812 180.4375 C 191.21875 179.160156 195.632812 174.980469 199.273438 168.742188 C 195.023438 168.503906 190.960938 168.113281 185.59375 168.664062 Z M 215.285156 131.832031 C 209.941406 133.761719 204.820312 135.332031 201.496094 137.449219 C 197.925781 139.742188 195.300781 143.546875 193.195312 150.058594 C 198.871094 151.394531 204.152344 150.726562 208.125 147.605469 C 211.976562 144.574219 214.398438 139 215.285156 131.832031 Z M 216.898438 91.777344 C 212.660156 95.550781 208.480469 98.902344 206.1875 102.109375 C 203.714844 105.546875 202.6875 110.066406 203.167969 116.898438 C 208.914062 116.023438 213.589844 113.445312 216.097656 109.074219 C 218.550781 104.824219 218.726562 98.757812 216.898438 91.777344 Z M 202.09375 53.386719 C 199.875 58.625 197.519531 63.445312 196.8125 67.320312 C 196.054688 71.484375 197.046875 76.015625 200.398438 81.980469 C 205.230469 78.742188 208.351562 74.417969 208.765625 69.382812 C 209.15625 64.507812 206.734375 58.933594 202.09375 53.386719 Z M 176.78125 24.292969 C 176.070312 29.921875 175.546875 35.195312 175.925781 39.109375 C 176.332031 43.335938 178.0625 47.425781 182.902344 52.257812 C 186.679688 47.835938 188.511719 42.828125 187.535156 37.863281 C 186.605469 33.054688 182.746094 28.359375 176.78125 24.292969 Z M 176.085938 17.585938 C 185.34375 22.578125 190.902344 29.457031 192.371094 36.914062 C 193.675781 43.609375 191.585938 50.472656 186.683594 56.015625 C 188.738281 58.933594 190.609375 61.9375 192.28125 65.042969 C 193.5625 59.570312 196.230469 54.417969 198.96875 47.699219 C 199.667969 45.972656 201.90625 45.511719 203.238281 46.757812 C 210.898438 53.953125 214.285156 62.214844 213.65625 69.773438 C 213.046875 77.320312 208.363281 83.957031 200.875 87.886719 C 201.683594 91.441406 202.265625 95.027344 202.644531 98.65625 C 206.171875 93.984375 210.945312 90.414062 216.503906 85.289062 C 217.96875 83.941406 220.121094 84.589844 220.773438 86.25 C 224.601562 96.039062 224.152344 104.953125 220.363281 111.527344 C 216.722656 117.859375 210 121.757812 201.949219 122.351562 C 201.367188 125.898438 200.574219 129.40625 199.554688 132.886719 C 204.546875 129.902344 210.265625 128.242188 217.335938 125.664062 C 219.539062 124.863281 220.976562 126.300781 220.933594 128.144531 C 220.6875 138.652344 217.144531 146.769531 211.179688 151.464844 C 205.433594 156.011719 197.710938 157.128906 189.992188 154.660156 C 188.085938 157.78125 185.996094 160.765625 183.75 163.632812 C 189.730469 162.65625 195.769531 163.789062 203.578125 163.875 C 205.621094 163.890625 206.652344 165.9375 205.910156 167.558594 C 201.601562 177.152344 195.113281 183.191406 187.78125 185.183594 C 180.746094 187.097656 173.230469 185.105469 167.101562 179.855469 C 164.21875 182.015625 161.199219 184.003906 158.046875 185.816406 C 164.011719 187.125 169.265625 190.332031 176.496094 193.421875 C 178.351562 194.222656 178.65625 196.339844 177.289062 197.722656 C 169.90625 205.191406 161.472656 208.242188 153.925781 207.371094 C 146.65625 206.53125 140.386719 201.886719 136.667969 194.699219 C 134.054688 195.414062 131.414062 196.035156 128.730469 196.511719 C 125.203125 197.207031 124.261719 191.851562 127.828125 191.316406 C 156.8125 186.222656 181.066406 166.460938 191.917969 139.097656 C 202.628906 112.121094 198.742188 80.855469 181.746094 58.128906 C 177.4375 52.375 171.488281 48.292969 170.585938 39.585938 C 169.964844 33.488281 171.445312 27.496094 172.238281 19.644531 C 172.429688 17.644531 174.519531 16.746094 176.085938 17.585938 Z M 176.085938 17.585938 "
       fill-opacity="1"
       fill-rule="nonzero"
       id="path5275"
       style="fill:#003569;fill-opacity:1" />
  </g>
</svg>
