<?xml version="1.0" encoding="UTF-8" standalone="no"?>
<!-- Generator: Adobe Illustrator 27.3.1, SVG Export Plug-In . SVG Version: 6.00 Build 0)  -->

<svg
   version="1.1"
   id="Layer_1"
   x="0px"
   y="0px"
   viewBox="0 0 1200 800"
   style="enable-background:new 0 0 1200 800;"
   xml:space="preserve"
   sodipodi:docname="Partnerships_Headline Graphic.svg"
   inkscape:version="1.2.2 (732a01da63, 2022-12-09)"
   xmlns:inkscape="http://www.inkscape.org/namespaces/inkscape"
   xmlns:sodipodi="http://sodipodi.sourceforge.net/DTD/sodipodi-0.dtd"
   xmlns="http://www.w3.org/2000/svg"
   xmlns:svg="http://www.w3.org/2000/svg"><defs
   id="defs258">
	
	

	
	

	
	
</defs><sodipodi:namedview
   id="namedview256"
   pagecolor="#ffffff"
   bordercolor="#000000"
   borderopacity="0.25"
   inkscape:showpageshadow="2"
   inkscape:pageopacity="0.0"
   inkscape:pagecheckerboard="0"
   inkscape:deskcolor="#d1d1d1"
   showgrid="false"
   inkscape:zoom="1.0175"
   inkscape:cx="564.61916"
   inkscape:cy="400"
   inkscape:window-width="1920"
   inkscape:window-height="1017"
   inkscape:window-x="-8"
   inkscape:window-y="-8"
   inkscape:window-maximized="1"
   inkscape:current-layer="Layer_1" />
<style
   type="text/css"
   id="style221">
	.st0{fill:#353D78;}
	.st1{fill:#FFFFFF;}
	.st2{fill:none;stroke:#FFFFFF;stroke-width:7;stroke-miterlimit:10;}
	.st3{fill:none;}
	.st4{fill:#58C7D9;}
</style>
<rect
   class="st0"
   width="1200"
   height="800"
   id="rect223"
   style="fill:#003569;fill-opacity:1" /><g
   id="g1236"><g
     id="g1225"><circle
       class="st0"
       cx="222.85013"
       cy="579.96558"
       r="130.97789"
       id="circle420"
       style="fill:#ed1c24;stroke-width:2.97677;fill-opacity:1" /><path
       class="st1"
       d="m 309.17646,540.37456 c -28.27932,0 -44.0562,6.84657 -45.84226,7.7396 -0.59536,0.29767 -0.89304,0.89303 -1.19071,1.48838 -0.29768,0.59536 0,1.19071 0,1.48839 l 1.48838,3.27445 -3.27444,-1.19071 c -5.35819,-2.08374 -13.39547,-5.35819 -21.73043,-8.93031 -12.20475,-5.35819 -20.53971,-4.46516 -30.36305,3.27444 l -0.29768,0.29768 h -32.14912 l 0.29768,-1.78606 c 0.29768,-1.19071 0.29768,-2.38142 0.29768,-3.27445 0,-0.59535 -0.29768,-1.48838 -0.59536,-1.78606 -4.76283,-4.46516 -23.21881,-7.14425 -38.99569,-8.03728 -0.59535,0 -1.19071,0.29768 -1.78606,0.59535 -0.59535,0.29768 -0.59535,0.89303 -0.59535,1.78607 v 67.57268 c 0,1.19071 0.89303,2.38142 2.38141,2.38142 h 22.62346 c 0.89303,0 1.78606,-0.59536 2.08373,-1.48839 l 1.48839,-5.06051 4.46516,4.76283 c 3.27444,3.57213 6.84657,7.14425 8.93031,8.93031 13.99082,11.60941 30.66073,24.40952 33.93518,26.49326 2.38141,1.78606 8.33495,4.16748 12.50243,4.16748 3.27445,0 5.95354,-0.59536 7.44193,-2.08374 l 0.59535,-0.59536 0.89303,0.29768 c 2.38142,0.89303 5.06051,0.89303 7.44193,0 2.97677,-1.19071 5.65586,-3.57212 7.14425,-6.54889 l 0.59535,-0.89303 1.19071,0.29767 c 2.67909,0.59536 5.65586,0 8.33495,-1.19071 2.6791,-1.1907 4.46516,-3.27444 5.65587,-5.65586 l 0.29767,-0.89303 h 1.19071 c 2.6791,0 5.35819,-0.89303 7.44193,-2.67909 2.97677,-2.6791 4.16748,-6.25122 3.57212,-10.12102 l -0.29767,-0.89303 8.33495,-5.65587 0.59536,1.78607 c 0.29767,1.48838 0.89303,2.67909 0.89303,3.57212 0.29767,0.89303 1.19071,1.78606 2.08374,1.78606 h 22.92113 c 1.1907,0 2.38141,-0.89303 2.38141,-2.38141 v -68.46572 c 0,-1.19071 -1.19071,-2.38141 -2.38141,-2.38141 z m -151.51761,59.23772 -0.29767,0.89303 h -18.75366 v -62.80985 h 1.48839 c 11.31173,0.89303 25.30255,2.97677 30.36306,5.35819 l 0.89303,0.59535 v 1.19071 c -1.78607,16.37224 -11.01405,45.84226 -13.69315,54.77257 z m 110.43818,19.05133 c -1.78606,1.78606 -4.46516,2.08374 -6.25122,1.19071 -3.27445,-2.38142 -15.4792,-15.18153 -22.32578,-22.32578 -0.29767,-0.29767 -0.89303,-0.59535 -1.48838,-0.59535 -0.89303,0 -1.19071,0.29768 -1.48839,0.59535 -0.29767,0.29768 -0.59535,0.89303 -0.59535,1.48839 0,0.59535 0.29768,1.19071 0.59535,1.48838 4.76284,5.06051 16.37224,16.96759 21.43275,21.43275 l 0.59535,0.59535 -0.29767,0.89303 c -0.59536,2.08374 -2.38142,3.27445 -3.57213,3.8698 -2.67909,1.48839 -5.95354,1.19071 -7.44192,0 -4.76284,-3.8698 -16.07456,-15.77688 -18.75366,-18.75365 -0.89303,-0.89303 -2.38141,-0.89303 -3.27444,0 -0.89303,0.89303 -0.89303,2.38142 0,3.27445 2.67909,2.97677 11.90708,12.50243 17.26526,17.56294 l 0.89304,0.59536 -0.29768,0.89303 c -0.89303,2.08374 -2.6791,4.16748 -4.76283,4.76283 -2.08374,0.89303 -4.16748,0.59536 -5.95354,-0.89303 -5.35819,-4.46515 -15.47921,-15.4792 -18.75366,-18.75365 -0.29767,-0.29768 -0.89303,-0.59536 -1.48838,-0.59536 -0.59536,0 -1.19071,0.29768 -1.48839,0.59536 -0.89303,0.89303 -0.89303,2.38141 0,3.27445 2.08374,2.38141 9.82334,10.71637 15.77689,16.07455 l 2.38141,2.08374 -2.97677,0.29768 c -0.59535,0 -1.19071,0 -2.08374,0 -2.67909,0 -7.7396,-1.78606 -10.12102,-3.27445 -2.67909,-1.78606 -19.349,-14.28849 -33.6375,-26.19557 -2.08374,-1.78607 -5.65586,-5.35819 -8.63263,-8.63264 -2.38142,-2.38141 -4.16748,-4.46515 -5.65587,-5.65586 l -0.59535,-0.59536 0.29768,-0.89303 c 3.27444,-10.71637 7.7396,-26.49325 10.12101,-38.99569 l 0.29768,-1.1907 h 27.98164 l -2.38141,2.67909 c -4.76284,4.76283 -11.60941,14.88385 -9.82335,21.73042 0.59536,2.67909 2.6791,4.76283 5.35819,5.65586 8.03728,2.6791 14.88385,0.29768 20.53971,-7.14424 l 0.29768,-0.59536 h 0.59536 c 2.08373,-0.29767 3.27444,-0.89303 5.35818,-1.78606 0.59536,-0.29768 1.48839,-0.59535 2.6791,-1.19071 l 0.89303,-0.29767 0.59535,0.59535 c 4.46516,4.16748 10.4187,8.93031 16.07456,13.69314 11.31173,8.93031 23.81416,19.34901 26.79093,25.30255 0.89303,4.16748 -1.48838,6.84657 -2.67909,7.7396 z m 4.46515,-11.6094 -0.89303,-1.19071 c -5.06051,-6.84657 -15.77688,-15.47921 -25.8979,-23.51649 -6.84657,-5.65586 -13.39546,-10.71637 -17.56294,-14.88385 -0.59536,-0.59535 -1.48839,-0.89303 -2.38142,-0.59535 -2.38142,0.89303 -3.8698,1.48839 -5.06051,2.08374 -2.08374,0.89303 -2.97677,1.19071 -5.65586,1.48838 -0.59536,0 -1.19071,0.29768 -1.78606,0.89304 -4.46516,6.54889 -9.82335,8.93031 -16.07456,6.54889 -1.48839,-0.59535 -2.08374,-1.19071 -2.38142,-2.38142 -0.89303,-4.16747 3.57213,-12.50243 8.63263,-17.56294 12.50244,-12.50244 19.34901,-15.77688 33.33983,-9.52567 12.50244,5.65587 25.30255,10.4187 28.87467,11.60941 l 0.59536,0.29768 0.29767,0.59535 c 4.46516,11.01405 10.4187,27.98164 14.2885,38.99569 l 0.29768,1.19071 z m 34.53054,0.89303 h -18.75365 l -0.29768,-1.19071 c -3.57213,-11.6094 -14.2885,-41.97246 -19.94436,-54.17722 l -0.59536,-1.19071 1.48839,-0.59535 c 5.95354,-2.08374 18.45597,-5.35819 36.3166,-5.65586 h 1.48838 v 62.80985 z"
       id="path422"
       style="fill:#ffffff;stroke-width:2.97677" /></g><g
     id="g1221"><circle
       class="st0"
       cx="600"
       cy="579.47418"
       r="130.97789"
       id="circle420-3"
       style="fill:#ed1c24;stroke-width:2.97677;fill-opacity:1" /><path
       class="st1"
       d="m 686.32633,539.88317 c -28.27931,0 -44.05619,6.84657 -45.84226,7.7396 -0.59535,0.29767 -0.89303,0.89303 -1.1907,1.48838 -0.29768,0.59536 0,1.19071 0,1.48839 l 1.48838,3.27445 -3.27445,-1.19071 c -5.35818,-2.08374 -13.39546,-5.35819 -21.73042,-8.93031 -12.20476,-5.35819 -20.53971,-4.46516 -30.36306,3.27444 l -0.29767,0.29768 h -32.14912 l 0.29768,-1.78606 c 0.29767,-1.19071 0.29767,-2.38142 0.29767,-3.27445 0,-0.59535 -0.29767,-1.48838 -0.59535,-1.78606 -4.76283,-4.46516 -23.21881,-7.14425 -38.99569,-8.03728 -0.59535,0 -1.19071,0.29768 -1.78606,0.59535 -0.59536,0.29768 -0.59536,0.89303 -0.59536,1.78607 v 67.57268 c 0,1.19071 0.89303,2.38142 2.38142,2.38142 h 22.62345 c 0.89303,0 1.78607,-0.59536 2.08374,-1.48839 l 1.48839,-5.06051 4.46515,4.76283 c 3.27445,3.57213 6.84657,7.14425 8.93031,8.93031 13.99082,11.60941 30.66074,24.40952 33.93518,26.49326 2.38142,1.78606 8.33496,4.16748 12.50244,4.16748 3.27445,0 5.95354,-0.59536 7.44192,-2.08374 l 0.59536,-0.59536 0.89303,0.29768 c 2.38142,0.89303 5.06051,0.89303 7.44192,0 2.97678,-1.19071 5.65587,-3.57212 7.14425,-6.54889 l 0.59536,-0.89303 1.19071,0.29767 c 2.67909,0.59536 5.65586,0 8.33495,-1.19071 2.6791,-1.1907 4.46516,-3.27444 5.65587,-5.65586 l 0.29767,-0.89303 h 1.19071 c 2.67909,0 5.35819,-0.89303 7.44193,-2.67909 2.97677,-2.6791 4.16747,-6.25122 3.57212,-10.12102 l -0.29768,-0.89303 8.33496,-5.65587 0.59535,1.78607 c 0.29768,1.48838 0.89303,2.67909 0.89303,3.57212 0.29768,0.89303 1.19071,1.78606 2.08374,1.78606 h 22.92113 c 1.19071,0 2.38142,-0.89303 2.38142,-2.38141 v -68.46572 c 0,-1.19071 -1.19071,-2.38141 -2.38142,-2.38141 z m -151.5176,59.23772 -0.29768,0.89303 H 515.7574 v -62.80985 h 1.48839 c 11.31172,0.89303 25.30254,2.97677 30.36305,5.35819 l 0.89303,0.59535 v 1.19071 c -1.78606,16.37224 -11.01405,45.84226 -13.69314,54.77257 z m 110.43818,19.05133 c -1.78607,1.78606 -4.46516,2.08374 -6.25122,1.19071 -3.27445,-2.38142 -15.47921,-15.18153 -22.32578,-22.32578 -0.29768,-0.29767 -0.89303,-0.59535 -1.48838,-0.59535 -0.89303,0 -1.19071,0.29768 -1.48839,0.59535 -0.29768,0.29768 -0.59535,0.89303 -0.59535,1.48839 0,0.59535 0.29767,1.19071 0.59535,1.48838 4.76283,5.06051 16.37224,16.96759 21.43275,21.43275 l 0.59535,0.59535 -0.29768,0.89303 c -0.59535,2.08374 -2.38141,3.27445 -3.57212,3.8698 -2.67909,1.48839 -5.95354,1.19071 -7.44193,0 -4.76283,-3.8698 -16.07455,-15.77688 -18.75365,-18.75365 -0.89303,-0.89303 -2.38141,-0.89303 -3.27445,0 -0.89303,0.89303 -0.89303,2.38142 0,3.27445 2.6791,2.97677 11.90709,12.50243 17.26527,17.56294 l 0.89303,0.59536 -0.29767,0.89303 c -0.89303,2.08374 -2.6791,4.16748 -4.76284,4.76283 -2.08374,0.89303 -4.16747,0.59536 -5.95354,-0.89303 -5.35818,-4.46515 -15.4792,-15.4792 -18.75365,-18.75365 -0.29768,-0.29768 -0.89303,-0.59536 -1.48838,-0.59536 -0.59536,0 -1.19071,0.29768 -1.48839,0.59536 -0.89303,0.89303 -0.89303,2.38141 0,3.27445 2.08374,2.38141 9.82334,10.71637 15.77688,16.07455 l 2.38142,2.08374 -2.97677,0.29768 c -0.59536,0 -1.19071,0 -2.08374,0 -2.67909,0 -7.7396,-1.78606 -10.12102,-3.27445 -2.67909,-1.78606 -19.34901,-14.28849 -33.6375,-26.19557 -2.08374,-1.78607 -5.65587,-5.35819 -8.63264,-8.63264 -2.38141,-2.38141 -4.16747,-4.46515 -5.65586,-5.65586 l -0.59535,-0.59536 0.29767,-0.89303 c 3.27445,-10.71637 7.73961,-26.49325 10.12102,-38.99569 l 0.29768,-1.1907 h 27.98164 l -2.38142,2.67909 c -4.76283,4.76283 -11.6094,14.88385 -9.82334,21.73042 0.59536,2.67909 2.67909,4.76283 5.35819,5.65586 8.03728,2.6791 14.88385,0.29768 20.53971,-7.14424 l 0.29768,-0.59536 h 0.59535 c 2.08374,-0.29767 3.27445,-0.89303 5.35819,-1.78606 0.59535,-0.29768 1.48838,-0.59535 2.67909,-1.19071 l 0.89303,-0.29767 0.59536,0.59535 c 4.46515,4.16748 10.41869,8.93031 16.07456,13.69314 11.31172,8.93031 23.81416,19.34901 26.79093,25.30255 0.89303,4.16748 -1.48839,6.84657 -2.67909,7.7396 z m 4.46515,-11.6094 -0.89303,-1.19071 c -5.06051,-6.84657 -15.77688,-15.47921 -25.8979,-23.51649 -6.84657,-5.65586 -13.39547,-10.71637 -17.56294,-14.88385 -0.59536,-0.59535 -1.48839,-0.89303 -2.38142,-0.59535 -2.38142,0.89303 -3.8698,1.48839 -5.06051,2.08374 -2.08374,0.89303 -2.97677,1.19071 -5.65586,1.48838 -0.59536,0 -1.19071,0.29768 -1.78607,0.89304 -4.46515,6.54889 -9.82334,8.93031 -16.07455,6.54889 -1.48839,-0.59535 -2.08374,-1.19071 -2.38142,-2.38142 -0.89303,-4.16747 3.57212,-12.50243 8.63263,-17.56294 12.50244,-12.50244 19.34901,-15.77688 33.33983,-9.52567 12.50243,5.65587 25.30255,10.4187 28.87467,11.60941 l 0.59535,0.29768 0.29768,0.59535 c 4.46516,11.01405 10.4187,27.98164 14.2885,38.99569 l 0.29767,1.19071 z m 34.53054,0.89303 h -18.75366 l -0.29767,-1.19071 c -3.57213,-11.6094 -14.2885,-41.97246 -19.94436,-54.17722 l -0.59536,-1.19071 1.48839,-0.59535 c 5.95354,-2.08374 18.45597,-5.35819 36.31659,-5.65586 h 1.48839 v 62.80985 z"
       id="path422-1"
       style="fill:#ffffff;stroke-width:2.97677" /></g><g
     id="g1217"><circle
       class="st0"
       cx="977.1499"
       cy="582.42261"
       r="130.97789"
       id="circle420-6"
       style="fill:#ed1c24;stroke-width:2.97677;fill-opacity:1" /><path
       class="st1"
       d="m 1063.4762,542.83157 c -28.2793,0 -44.0562,6.84657 -45.8422,7.7396 -0.5954,0.29767 -0.8931,0.89303 -1.1908,1.48838 -0.2976,0.59536 0,1.19071 0,1.48839 l 1.4884,3.27445 -3.2744,-1.19071 c -5.3582,-2.08374 -13.3955,-5.35819 -21.73044,-8.93031 -12.20476,-5.35819 -20.53971,-4.46516 -30.36306,3.27444 l -0.29767,0.29768 h -32.14912 l 0.29768,-1.78606 c 0.29767,-1.19071 0.29767,-2.38142 0.29767,-3.27445 0,-0.59535 -0.29767,-1.48838 -0.59535,-1.78606 -4.76283,-4.46516 -23.21881,-7.14425 -38.99569,-8.03728 -0.59535,0 -1.19071,0.29768 -1.78606,0.59535 -0.59536,0.29768 -0.59536,0.89303 -0.59536,1.78607 v 67.57268 c 0,1.19071 0.89303,2.38142 2.38142,2.38142 h 22.62345 c 0.89303,0 1.78607,-0.59536 2.08374,-1.48839 l 1.48839,-5.06051 4.46515,4.76283 c 3.27445,3.57213 6.84657,7.14425 8.93031,8.93031 13.99082,11.60941 30.66074,24.40952 33.93518,26.49326 2.38142,1.78606 8.33496,4.16748 12.50244,4.16748 3.27445,0 5.95354,-0.59536 7.44192,-2.08374 l 0.59536,-0.59536 0.89303,0.29768 c 2.38142,0.89303 5.06051,0.89303 7.44192,0 2.97678,-1.19071 5.65587,-3.57212 7.14429,-6.54889 l 0.5953,-0.89303 1.1907,0.29767 c 2.6791,0.59536 5.6559,0 8.335,-1.19071 2.6791,-1.1907 4.4651,-3.27444 5.6558,-5.65586 l 0.2977,-0.89303 h 1.1907 c 2.6791,0 5.3582,-0.89303 7.442,-2.67909 2.9767,-2.6791 4.1674,-6.25122 3.5721,-10.12102 l -0.2977,-0.89303 8.335,-5.65587 0.5953,1.78607 c 0.2977,1.48838 0.893,2.67909 0.893,3.57212 0.2977,0.89303 1.1908,1.78606 2.0838,1.78606 h 22.9211 c 1.1907,0 2.3814,-0.89303 2.3814,-2.38141 v -68.46572 c 0,-1.19071 -1.1907,-2.38141 -2.3814,-2.38141 z m -151.51759,59.23772 -0.29768,0.89303 h -18.75365 v -62.80985 h 1.48839 c 11.31172,0.89303 25.30254,2.97677 30.36305,5.35819 l 0.89303,0.59535 v 1.19071 c -1.78606,16.37224 -11.01405,45.84226 -13.69314,54.77257 z m 110.43819,19.05133 c -1.7861,1.78606 -4.4652,2.08374 -6.2512,1.19071 -3.2745,-2.38142 -15.4792,-15.18153 -22.32581,-22.32578 -0.29768,-0.29767 -0.89303,-0.59535 -1.48838,-0.59535 -0.89303,0 -1.19071,0.29768 -1.48839,0.59535 -0.29768,0.29768 -0.59535,0.89303 -0.59535,1.48839 0,0.59535 0.29767,1.19071 0.59535,1.48838 4.76283,5.06051 16.37228,16.96759 21.43278,21.43275 l 0.5953,0.59535 -0.2977,0.89303 c -0.5953,2.08374 -2.3814,3.27445 -3.5721,3.8698 -2.6791,1.48839 -5.9535,1.19071 -7.4419,0 -4.76284,-3.8698 -16.07456,-15.77688 -18.75366,-18.75365 -0.89303,-0.89303 -2.38141,-0.89303 -3.27445,0 -0.89303,0.89303 -0.89303,2.38142 0,3.27445 2.6791,2.97677 11.90709,12.50243 17.26527,17.56294 l 0.89303,0.59536 -0.29767,0.89303 c -0.89303,2.08374 -2.6791,4.16748 -4.76284,4.76283 -2.08374,0.89303 -4.16747,0.59536 -5.95354,-0.89303 -5.35818,-4.46515 -15.4792,-15.4792 -18.75365,-18.75365 -0.29768,-0.29768 -0.89303,-0.59536 -1.48838,-0.59536 -0.59536,0 -1.19071,0.29768 -1.48839,0.59536 -0.89303,0.89303 -0.89303,2.38141 0,3.27445 2.08374,2.38141 9.82334,10.71637 15.77688,16.07455 l 2.38142,2.08374 -2.97677,0.29768 c -0.59536,0 -1.19071,0 -2.08374,0 -2.67909,0 -7.7396,-1.78606 -10.12102,-3.27445 -2.67909,-1.78606 -19.34901,-14.28849 -33.6375,-26.19557 -2.08374,-1.78607 -5.65587,-5.35819 -8.63264,-8.63264 -2.38141,-2.38141 -4.16747,-4.46515 -5.65586,-5.65586 l -0.59535,-0.59536 0.29767,-0.89303 c 3.27445,-10.71637 7.73961,-26.49325 10.12102,-38.99569 l 0.29768,-1.1907 h 27.98164 l -2.38142,2.67909 c -4.76283,4.76283 -11.6094,14.88385 -9.82334,21.73042 0.59536,2.67909 2.67909,4.76283 5.35819,5.65586 8.03728,2.6791 14.88385,0.29768 20.53971,-7.14424 l 0.29768,-0.59536 h 0.59535 c 2.08374,-0.29767 3.27445,-0.89303 5.35819,-1.78606 0.59535,-0.29768 1.48838,-0.59535 2.67909,-1.19071 l 0.89303,-0.29767 0.59536,0.59535 c 4.46515,4.16748 10.41869,8.93031 16.07456,13.69314 11.31175,8.93031 23.81415,19.34901 26.79095,25.30255 0.893,4.16748 -1.4884,6.84657 -2.6791,7.7396 z m 4.4651,-11.6094 -0.893,-1.19071 c -5.0605,-6.84657 -15.7769,-15.47921 -25.8979,-23.51649 -6.84656,-5.65586 -13.39546,-10.71637 -17.56293,-14.88385 -0.59536,-0.59535 -1.48839,-0.89303 -2.38142,-0.59535 -2.38142,0.89303 -3.8698,1.48839 -5.06051,2.08374 -2.08374,0.89303 -2.97677,1.19071 -5.65586,1.48838 -0.59536,0 -1.19071,0.29768 -1.78607,0.89304 -4.46515,6.54889 -9.82334,8.93031 -16.07455,6.54889 -1.48839,-0.59535 -2.08374,-1.19071 -2.38142,-2.38142 -0.89303,-4.16747 3.57212,-12.50243 8.63263,-17.56294 12.50244,-12.50244 19.34901,-15.77688 33.33983,-9.52567 12.5024,5.65587 25.3025,10.4187 28.8747,11.60941 l 0.5953,0.29768 0.2977,0.59535 c 4.4652,11.01405 10.4187,27.98164 14.2885,38.99569 l 0.2977,1.19071 z m 34.5306,0.89303 h -18.7537 l -0.2977,-1.19071 c -3.5721,-11.6094 -14.2885,-41.97246 -19.9443,-54.17722 l -0.5954,-1.19071 1.4884,-0.59535 c 5.9536,-2.08374 18.456,-5.35819 36.3166,-5.65586 h 1.4884 v 62.80985 z"
       id="path422-9"
       style="fill:#ffffff;stroke-width:2.97677" /></g></g>



<g
   id="g382"
   transform="translate(0,-166)"><g
     id="g239"
     style="display:inline">
	<g
   id="g235">
		<path
   class="st1"
   d="m 618.4,337.3 c -11.8,0 -23.6,0 -35.4,0 -4,0 -6.5,-2.5 -6.4,-6.5 0.1,-2.1 0.2,-4.2 0.6,-6.3 2.9,-14.7 14.2,-25.8 28.9,-28.5 1.5,-0.3 3,-0.5 4.6,-0.5 5.6,0 11.3,-0.3 16.9,0.2 12.1,1 21.3,7.1 27.6,17.4 3.3,5.3 4.8,11.2 5,17.5 0.1,4.2 -2.4,6.7 -6.5,6.7 -11.7,0 -23.5,0 -35.3,0 z"
   id="path225" />
		<path
   class="st1"
   d="m 618.5,289.4 c -13.3,0 -24,-10.7 -24,-24 0,-13.2 10.8,-23.9 24.1,-23.9 13,0 23.8,10.8 23.8,23.8 -0.1,13.4 -10.7,24.1 -23.9,24.1 z"
   id="path227" />
		<g
   id="g233">
			<path
   class="st1"
   d="m 550.4,273.3 c 0,-11.8 9.6,-21.3 21.4,-21.3 11.6,0 21.2,9.6 21.2,21.2 0,11.9 -9.5,21.4 -21.3,21.4 -11.7,0 -21.3,-9.5 -21.3,-21.3 z"
   id="path229" />
			<path
   class="st1"
   d="m 584.2,301.9 c -4.7,4.8 -8.1,10.1 -10.2,16.4 -2,6.1 -3.1,12.4 -1.5,19 -0.4,0 -0.8,0.1 -1.1,0.1 -8.6,0 -17.2,0 -25.7,0 -3.8,0 -5.8,-2.2 -5.9,-5.9 -0.2,-7.4 1.7,-14.1 6.3,-20 5.7,-7.1 13.1,-10.9 22.2,-11.3 4.6,-0.2 9.3,-0.3 13.8,1.1 0.5,0.1 1,0.3 1.5,0.5 0.1,-0.2 0.2,-0.1 0.6,0.1 z"
   id="path231" />
		</g>
	</g>
	<circle
   class="st2"
   cx="600"
   cy="291.20001"
   r="87.300003"
   id="circle237" />
</g><g
     id="g245">
	<path
   class="st1"
   d="m 877.7,461 c -4.4,0 -8,1 -10.7,3.1 -2.7,2.1 -4.1,4.8 -4.1,8.3 0,2.4 0.8,4.5 2.3,6.3 1.5,1.8 3.8,3.4 7,4.9 4.1,2 6.6,3.3 7.3,3.8 0.7,0.5 1.4,1 1.8,1.6 0.4,0.6 0.6,1.1 0.6,1.7 0,1 -0.5,1.9 -1.6,2.5 -1.1,0.6 -2.5,0.9 -4.3,0.9 -3.4,0 -7.7,-1.4 -12.7,-4.2 v 8.6 c 1.6,0.9 3.6,1.6 6,2.2 2.4,0.6 5,0.9 7.8,0.9 4.5,0 8,-1.1 10.7,-3.3 2.6,-2.2 3.9,-5.1 3.9,-8.9 0,-2.7 -0.9,-5 -2.7,-6.9 -1.8,-1.9 -4.9,-4 -9.4,-6.3 -3.1,-1.6 -5.1,-2.6 -5.8,-3.2 -0.7,-0.6 -1,-1.2 -1,-1.8 0,-1 0.4,-1.8 1.3,-2.4 0.9,-0.6 2,-0.8 3.5,-0.8 1.8,0 3.8,0.4 6,1.2 2.2,0.8 4.3,1.8 6.3,3 v -8.3 c -2.1,-1.1 -4.1,-1.8 -6,-2.3 -2,-0.3 -4,-0.6 -6.2,-0.6 z m -26.2,0 c -2.3,0 -4.4,0.8 -6.3,2.5 -1.9,1.7 -3.8,4.4 -5.7,8.2 h -0.2 v -10 H 829 V 501 h 10.3 v -17.9 c 0,-2 0.5,-3.9 1.4,-5.9 0.9,-2 2.2,-3.5 3.7,-4.7 1.6,-1.2 3.1,-1.8 4.7,-1.8 1.8,0 4.2,1.1 7.2,3.4 l 3.7,-9 c -1.8,-1.5 -3.3,-2.5 -4.6,-3.1 -1.2,-0.7 -2.5,-1 -3.9,-1 z m -40.2,16.2 h -17.9 c 0.4,-3 1.4,-5.3 3,-6.8 1.6,-1.5 3.7,-2.3 6.3,-2.3 2.5,0 4.5,0.8 6,2.4 1.4,1.6 2.3,3.8 2.6,6.7 z M 802.2,461 c -5.8,0 -10.5,1.9 -14.2,5.7 -3.6,3.8 -5.4,8.7 -5.4,14.6 0,6.2 2,11.1 5.9,14.9 3.9,3.8 9,5.6 15.2,5.6 6.6,0 12.1,-1.6 16.7,-4.9 v -7.7 c -2.4,1.7 -4.8,3 -7.1,3.9 -2.3,0.9 -4.7,1.3 -7.1,1.3 -3.8,0 -6.9,-0.9 -9,-2.8 -2.2,-1.9 -3.5,-4.6 -3.9,-8.1 H 821 v -1.6 c 0,-6.5 -1.7,-11.6 -5,-15.3 -3.3,-3.7 -8,-5.6 -13.8,-5.6 z m -41.3,0 c -2.4,0 -4.5,0.5 -6.5,1.4 -2,1 -4,2.6 -5.9,4.8 v -5.5 H 738.2 V 501 h 10.3 v -26.1 c 1.7,-2.2 3.2,-3.7 4.6,-4.7 1.4,-0.9 2.9,-1.4 4.5,-1.4 2.1,0 3.8,0.7 5,2.2 1.2,1.5 1.8,3.5 1.8,6 v 24 h 10.3 v -25 c 0,-4.5 -1.3,-8.1 -3.8,-10.9 -2.5,-2.7 -5.8,-4.1 -10,-4.1 z m -43.7,-9.6 -15.6,16.5 v 1.7 h 6.1 v 18.8 c 0,4.1 1.2,7.4 3.7,9.8 2.5,2.4 5.9,3.6 10.4,3.6 3.3,0 6.8,-0.8 10.5,-2.5 V 491 c -3.1,1.7 -5.9,2.6 -8.3,2.6 -1.8,0 -3.3,-0.5 -4.4,-1.6 -1.1,-1.1 -1.6,-2.5 -1.6,-4.3 v -18.1 h 13.4 v -7.8 H 718 v -10.4 z m -24.3,9.6 c -2.3,0 -4.4,0.8 -6.3,2.5 -1.9,1.7 -3.8,4.4 -5.7,8.2 h -0.2 v -10 H 670.4 V 501 h 10.3 v -17.9 c 0,-2 0.5,-3.9 1.4,-5.9 0.9,-2 2.2,-3.5 3.7,-4.7 1.6,-1.2 3.1,-1.8 4.7,-1.8 1.8,0 4.2,1.1 7.2,3.4 l 3.7,-9 c -1.8,-1.5 -3.3,-2.5 -4.6,-3.1 -1.3,-0.6 -2.5,-1 -3.9,-1 z m -56.2,29.5 c 0,-1.3 0.4,-2.4 1.2,-3.3 0.8,-0.9 2,-1.8 3.6,-2.6 1.6,-0.8 3.9,-1.8 6.8,-2.8 v 10.3 c -2.3,2.1 -4.5,3.1 -6.8,3.1 -1.3,0 -2.5,-0.4 -3.4,-1.3 -0.9,-0.9 -1.4,-2 -1.4,-3.4 z M 643,461 c -5.9,0 -11,1.7 -15.2,5.1 v 9.3 c 1.9,-2.1 4.1,-3.7 6.4,-4.8 2.3,-1.1 4.7,-1.6 7.1,-1.6 4.6,0 7,1.9 7,5.8 v 1.8 l -8.4,2.4 c -5,1.5 -8.6,3.2 -10.6,5.1 -2,1.9 -3,4.6 -3,8 0,2.7 1,4.9 3,6.8 2,1.9 4.5,2.9 7.3,2.9 4,0 7.9,-1.4 11.9,-4.2 0.4,1.6 1.1,2.7 2.1,3.3 1,0.6 2.4,0.9 4.3,0.9 3,0 6.3,-1.1 9.9,-3.3 v -6 c -0.6,0.6 -1.4,1.1 -2.3,1.5 -0.9,0.4 -1.6,0.7 -2.1,0.7 -1.2,0 -1.8,-0.7 -1.8,-2.2 v -19.2 c 0,-3.8 -1.3,-6.8 -4,-9 -2.7,-2.2 -6.5,-3.3 -11.6,-3.3 z m -43.1,6.5 h -8.5 v -16.3 h 7.7 c 6.9,0 10.4,2.7 10.4,8.1 0,2.7 -0.8,4.8 -2.5,6.2 -1.7,1.3 -4.1,2 -7.1,2 z m 2.8,-25.2 H 580 V 501 h 11.3 v -24.6 h 10.9 c 5.7,0 10.3,-1.6 13.7,-4.7 3.4,-3.1 5.2,-7.2 5.2,-12.3 0,-5 -1.7,-9.1 -5.1,-12.3 -3.4,-3.2 -7.8,-4.8 -13.3,-4.8 z M 541.3,461 c -2.3,0 -4.4,0.8 -6.3,2.5 -1.9,1.7 -3.8,4.4 -5.7,8.2 h -0.2 v -10 H 518.8 V 501 h 10.3 v -17.9 c 0,-2 0.5,-3.9 1.4,-5.9 0.9,-2 2.2,-3.5 3.7,-4.7 1.6,-1.2 3.1,-1.8 4.7,-1.8 1.8,0 4.2,1.1 7.2,3.4 l 3.7,-9 c -1.8,-1.5 -3.3,-2.5 -4.6,-3.1 -1.3,-0.6 -2.5,-1 -3.9,-1 z m -58.9,0.8 h -10.3 v 25.1 c 0,4.4 1.3,8 3.9,10.8 2.6,2.8 6,4.1 10.2,4.1 4.3,0 8.4,-2 12.1,-6.1 v 5.3 h 10.3 v -39.2 h -10.3 v 26 c -1,1.9 -2.3,3.4 -3.9,4.5 -1.6,1.1 -3.3,1.6 -5,1.6 -2.1,0 -3.8,-0.7 -5.1,-2 -1.3,-1.3 -1.9,-3.3 -1.9,-5.8 z m -72.3,9.9 c 0,-3.9 0.9,-7.4 2.6,-10.5 1.7,-3.1 4.2,-5.5 7.3,-7.2 3.2,-1.7 6.8,-2.6 10.7,-2.6 3.9,0 7.6,0.9 10.7,2.6 3.1,1.7 5.6,4.1 7.4,7.2 1.7,3.1 2.6,6.6 2.6,10.5 0,6 -1.9,10.8 -5.8,14.6 -3.9,3.8 -8.8,5.7 -14.8,5.7 -4,0 -7.5,-0.9 -10.7,-2.6 -3.2,-1.7 -5.6,-4.1 -7.4,-7.2 -1.8,-3.1 -2.6,-6.6 -2.6,-10.5 z m 20.7,-30.1 c -6.3,0 -11.9,1.3 -16.8,3.9 -4.9,2.6 -8.7,6.3 -11.5,11 -2.8,4.7 -4.2,9.8 -4.2,15.2 0,5.6 1.4,10.7 4.2,15.3 2.8,4.6 6.6,8.2 11.6,10.9 5,2.7 10.5,3.9 16.6,3.9 6.2,0 11.7,-1.3 16.6,-3.9 4.9,-2.6 8.8,-6.2 11.6,-10.9 2.8,-4.7 4.2,-9.8 4.2,-15.3 0,-5.6 -1.4,-10.8 -4.3,-15.5 -2.9,-4.7 -6.8,-8.3 -11.6,-10.8 -4.9,-2.6 -10.3,-3.8 -16.4,-3.8 z"
   id="path243" />
</g><g
     id="g253"
     style="display:inline">
	<path
   class="st4"
   d="m 331.3,488.8 c 1.5,-3.2 2.8,-6.2 4.1,-9.1 2.5,-5.5 4.9,-11 7.4,-16.5 4.1,-9.2 8.3,-18.4 12.4,-27.6 3.5,-7.9 7,-15.8 10.6,-23.7 1,-2.2 1.9,-4.4 3,-6.5 1.2,-2.2 3.9,-3 6.1,-1.9 2.3,1.2 3.3,3.8 2.2,6.2 -2.8,6.3 -5.6,12.6 -8.4,18.9 -3.7,8.2 -7.3,16.4 -11,24.5 -3.2,7.2 -6.4,14.3 -9.7,21.5 -3.4,7.6 -6.8,15.3 -10.2,22.9 -0.8,1.7 -1.5,3.5 -2.3,5.1 -0.9,1.9 -2.4,3.1 -4.7,3 -2,-0.1 -3.4,-1.1 -4.2,-3 -3,-7.2 -6,-14.3 -9.1,-21.4 -2.8,-6.6 -5.6,-13.2 -8.4,-19.8 -1,-2.3 -2,-4.5 -2.8,-6.9 -0.8,-2.2 0.6,-4.9 2.8,-5.7 2.3,-0.8 5.1,0.4 6.1,2.6 3.5,8.4 7.1,16.7 10.6,25.1 1.6,3.7 3.2,7.5 4.8,11.2 0.2,0.3 0.4,0.6 0.7,1.1 z"
   id="path247" />
	<path
   class="st1"
   d="m 295.8,504 c 0.8,-0.8 1.2,-1.3 1.8,-1.7 0.3,-0.1 0.9,0.1 1.2,0.4 2.1,1.9 4,3.9 6.1,5.6 5.9,4.6 12.6,7.5 20,8.7 4.5,0.8 9.1,1 13.6,0 6.2,-1.4 11.7,-4.3 16.5,-8.3 2.2,-1.8 4.2,-3.8 6.3,-5.8 0.5,-0.5 0.9,-0.6 1.5,-0.1 1.4,1.4 1.4,1.3 0,2.7 -4.9,5.1 -10.4,9.2 -16.9,12.1 -7.7,3.4 -15.6,3.5 -23.6,1.8 -6.8,-1.4 -12.9,-4.2 -18.4,-8.3 -2.7,-2.1 -5.2,-4.6 -8.1,-7.1 z"
   id="path249" />
	<path
   class="st1"
   d="m 333.5,424.5 c 1.5,0.1 4,0.3 6.5,0.6 0.6,0.1 1.5,0.1 1.2,1.2 -0.3,0.8 0,2 -1.7,1.7 -13.4,-2.1 -25.4,1.4 -35.9,9.9 -1.9,1.5 -3.5,3.2 -5.1,5 -1.1,1.2 -1.5,0.2 -2.1,-0.3 -0.9,-0.5 -0.6,-1 -0.1,-1.6 5.8,-6.7 13,-11.4 21.4,-14.1 5,-1.7 9,-2.3 15.8,-2.4 z"
   id="path251" />
</g></g>
</svg>
